<svg width="96" height="96" viewBox="0 0 96 96" xmlns="http://www.w3.org/2000/svg">
  <rect id="youtube_play" height="36" width="43" y="31" x="28" fill="#ffffff"/>
  <path id="youtube" fill="#ff0000" d="m39.38182,60.92727l22.36418,-12.92727l-22.24297,-12.92727l-0.12121,25.85455m49.81309,-33.74018c0.56018,2.02527 0.948,4.74 1.20655,8.18727c0.30164,3.44727 0.43091,6.42055 0.43091,9.006l0.25855,3.61964c0,9.43691 -0.68945,16.37455 -1.896,20.81291c-1.07727,3.87818 -3.57655,6.37745 -7.45473,7.45473c-2.02527,0.56018 -5.73109,0.948 -11.41909,1.20655c-5.60182,0.30164 -10.72964,0.43091 -15.46964,0.43091l-6.85145,0.25855c-18.05509,0 -29.30182,-0.68945 -33.74018,-1.896c-3.87818,-1.07727 -6.37745,-3.57655 -7.45473,-7.45473c-0.56018,-2.02527 -0.948,-4.74 -1.20655,-8.18727c-0.30164,-3.44727 -0.43091,-6.42055 -0.43091,-9.006l-0.25855,-3.61964c0,-9.43691 0.68945,-16.37455 1.896,-20.81291c1.07727,-3.87818 3.57655,-6.37745 7.45473,-7.45473c2.02527,-0.56018 5.73109,-0.948 11.41909,-1.20655c5.60182,-0.30164 10.72964,-0.43091 15.46964,-0.43091l6.85145,-0.25855c18.05509,0 29.30182,0.68945 33.74018,1.896c3.87818,1.07727 6.37745,3.57655 7.45473,7.45473z" />
  <path id="filter" fill="#b7b7b7" d="m84.24757,78.61399l0,14.79158c0.07508,0.56313 -0.11263,1.1638 -0.54436,1.558c-0.73207,0.73207 -1.91465,0.73207 -2.64672,0l-3.77298,-3.77298c-0.43173,-0.43173 -0.61944,-1.01364 -0.54436,-1.558l0,-11.0186l-0.05631,0l-10.81212,-13.85303c-0.63822,-0.80715 -0.48805,-1.98973 0.31911,-2.62795c0.35665,-0.26279 0.75084,-0.41296 1.1638,-0.41296l0,0l26.27946,0l0,0c0.41296,0 0.80715,0.15017 1.1638,0.41296c0.80715,0.63822 0.95732,1.82079 0.31911,2.62795l-10.81212,13.85303l-0.05631,0z"/>
</svg>
