<svg width="24" height="24" xmlns="http://www.w3.org/2000/svg">

 <g>
  <title>Layer 1</title>
  <path fill="#ff0000" id="svg_1" d="m10,15l5.19,-3l-5.19,-3l0,6m11.56,-7.83c0.13,0.47 0.22,1.1 0.28,1.9c0.07,0.8 0.1,1.49 0.1,2.09l0.06,0.84c0,2.19 -0.16,3.8 -0.44,4.83c-0.25,0.9 -0.83,1.48 -1.73,1.73c-0.47,0.13 -1.33,0.22 -2.65,0.28c-1.3,0.07 -2.49,0.1 -3.59,0.1l-1.59,0.06c-4.19,0 -6.8,-0.16 -7.83,-0.44c-0.9,-0.25 -1.48,-0.83 -1.73,-1.73c-0.13,-0.47 -0.22,-1.1 -0.28,-1.9c-0.07,-0.8 -0.1,-1.49 -0.1,-2.09l-0.06,-0.84c0,-2.19 0.16,-3.8 0.44,-4.83c0.25,-0.9 0.83,-1.48 1.73,-1.73c0.47,-0.13 1.33,-0.22 2.65,-0.28c1.3,-0.07 2.49,-0.1 3.59,-0.1l1.59,-0.06c4.19,0 6.8,0.16 7.83,0.44c0.9,0.25 1.48,0.83 1.73,1.73z"/>
  <g>
   <path d="m20.42982,18.7062l0,4.5254c0.02297,0.17229 -0.03446,0.35606 -0.16654,0.47666c-0.22397,0.22397 -0.58578,0.22397 -0.80975,0l-1.15432,-1.15432c-0.13209,-0.13209 -0.18952,-0.31012 -0.16654,-0.47666l0,-3.37108l-0.01723,0l-3.30791,-4.23826c-0.19526,-0.24694 -0.14932,-0.60875 0.09763,-0.80401c0.10912,-0.0804 0.22972,-0.12634 0.35606,-0.12634l0,0l8.04005,0l0,0c0.12634,0 0.24694,0.04594 0.35606,0.12634c0.24694,0.19526 0.29289,0.55706 0.09763,0.80401l-3.30791,4.23826l-0.01723,0z"/>
  </g>
 </g>
</svg>